<svg xmlns="http://www.w3.org/2000/svg" width="1400" height="380" viewBox="0 0 1400 380">
<defs>
  <linearGradient id="bg" x1="0" y1="0" x2="1" y2="1"><stop offset="0" stop-color="#07111f"/><stop offset="1" stop-color="#111827"/></linearGradient>
  <linearGradient id="accent" x1="0" y1="0" x2="1" y2="0"><stop offset="0" stop-color="#38bdf8"/><stop offset="1" stop-color="#22c55e"/></linearGradient>
</defs>
<rect width="1400" height="380" rx="28" fill="url(#bg)"/>
<g opacity="0.08" stroke="#7dd3fc"><path d="M0 76H1400M0 152H1400M0 228H1400M0 304H1400"/><path d="M100 0V380M300 0V380M500 0V380M700 0V380M900 0V380M1100 0V380M1300 0V380"/></g>
<text x="72" y="92" fill="#38bdf8" font-family="monospace" font-size="23" font-weight="700">STM32F303VCT6  •  MPU6050  •  I²C  •  USB CDC</text>
<text x="72" y="175" fill="#ffffff" font-family="Arial, sans-serif" font-size="56" font-weight="800">Motion Sensor → Virtual COM Monitor</text>
<text x="75" y="230" fill="#a7b4c3" font-family="monospace" font-size="21">6-AXIS IMU ACQUISITION  /  RAW + SCALED DATA  /  PC SERIAL OUTPUT</text>
<rect x="75" y="270" width="650" height="6" rx="3" fill="url(#accent)"/>
<g transform="translate(1080 62)" fill="none" stroke="#38bdf8" stroke-width="6">
  <rect x="15" y="20" width="220" height="180" rx="24"/>
  <circle cx="75" cy="80" r="22"/><circle cx="175" cy="80" r="22"/><path d="M55 145h140M125 200v75M72 275h106"/>
  <path d="M-55 105h70M235 105h80"/><circle cx="-65" cy="105" r="10"/><circle cx="325" cy="105" r="10"/>
</g>
</svg>